{
  "accessors": [
    {
      "bufferView": 2,
      "componentType": 5126,
      "count": 434,
      "max": [
        0.2523219883441925,
        1.1672999858856201,
        0.4537540078163147
      ],
      "min": [
        -0.2523230016231537,
        0.12335799634456635,
        -0.25651198625564575
      ],
      "type": "VEC3"
    },
    {
      "bufferView": 2,
      "byteOffset": 5208,
      "componentType": 5126,
      "count": 434,
      "max": [
        0.9978971481323242,
        0.999999463558197,
        0.9999998807907104
      ],
      "min": [
        -0.9978972673416138,
        -0.9957177639007568,
        -0.9995335340499878
      ],
      "type": "VEC3"
    },
    {
      "bufferView": 3,
      "componentType": 5126,
      "count": 434,
      "max": [
        0.49803921580314636,
        0.49803921580314636,
        0.49803921580314636,
        1.0
      ],
      "min": [
        0.49803921580314636,
        0.49803921580314636,
        0.49803921580314636,
        1.0
      ],
      "type": "VEC4"
    },
    {
      "bufferView": 1,
      "componentType": 5126,
      "count": 434,
      "max": [
        1.2546600103378296,
        0.9921879768371582
      ],
      "min": [
        0.015625,
        0.015625
      ],
      "type": "VEC2"
    },
    {
      "bufferView": 0,
      "componentType": 5125,
      "count": 1428,
      "type": "SCALAR"
    },
    {
      "bufferView": 2,
      "byteOffset": 10416,
      "componentType": 5126,
      "count": 471,
      "max": [
        0.6250900030136108,
        0.6246309876441956,
        1.0730700492858887
      ],
      "min": [
        -0.6233540177345276,
        0.0468796007335186,
        -0.9783290028572083
      ],
      "type": "VEC3"
    },
    {
      "bufferView": 2,
      "byteOffset": 16068,
      "componentType": 5126,
      "count": 471,
      "max": [
        0.9986993670463562,
        0.9999948740005493,
        0.9996256232261658
      ],
      "min": [
        -0.9988386631011963,
        -0.9999750256538391,
        -1.0
      ],
      "type": "VEC3"
    },
    {
      "bufferView": 3,
      "byteOffset": 6944,
      "componentType": 5126,
      "count": 471,
      "max": [
        1.0,
        1.0,
        1.0,
        1.0
      ],
      "min": [
        0.0,
        0.0,
        0.0,
        1.0
      ],
      "type": "VEC4"
    },
    {
      "bufferView": 1,
      "byteOffset": 3472,
      "componentType": 5126,
      "count": 471,
      "max": [
        1.8808799982070923,
        1.1757400035858154
      ],
      "min": [
        -0.5628979802131653,
        -0.4360859990119934
      ],
      "type": "VEC2"
    },
    {
      "bufferView": 0,
      "byteOffset": 5712,
      "componentType": 5125,
      "count": 1083,
      "type": "SCALAR"
    },
    {
      "bufferView": 2,
      "byteOffset": 21720,
      "componentType": 5126,
      "count": 208,
      "max": [
        0.6179779767990112,
        0.43970099091529846,
        0.6250439882278442
      ],
      "min": [
        -0.6179779767990112,
        -0.001231699949130416,
        -0.5712739825248718
      ],
      "type": "VEC3"
    },
    {
      "bufferView": 2,
      "byteOffset": 24216,
      "componentType": 5126,
      "count": 208,
      "max": [
        1.0,
        1.0,
        1.0
      ],
      "min": [
        -1.0,
        -1.0,
        -1.0
      ],
      "type": "VEC3"
    },
    {
      "bufferView": 3,
      "byteOffset": 14480,
      "componentType": 5126,
      "count": 208,
      "max": [
        0.7019608020782471,
        0.7019608020782471,
        0.7019608020782471,
        1.0
      ],
      "min": [
        0.49803921580314636,
        0.49803921580314636,
        0.49803921580314636,
        1.0
      ],
      "type": "VEC4"
    },
    {
      "bufferView": 1,
      "byteOffset": 7240,
      "componentType": 5126,
      "count": 208,
      "max": [
        5.312310218811035,
        1.0002700090408325
      ],
      "min": [
        -0.6908299922943115,
        -1.01187002658844
      ],
      "type": "VEC2"
    },
    {
      "bufferView": 0,
      "byteOffset": 10044,
      "componentType": 5125,
      "count": 576,
      "type": "SCALAR"
    }
  ],
  "asset": {
    "extras": {
      "author": "TheShibeLord (https://sketchfab.com/TheShibeLord)",
      "license": "CC-BY-4.0 (http://creativecommons.org/licenses/by/4.0/)",
      "source": "https://sketchfab.com/3d-models/3ds-nintendogs-cats-yoshi-kart-2dffbc12e627496ab2feae437e3ff630",
      "title": "3DS - Nintendogs Cats - Yoshi Kart"
    },
    "generator": "Sketchfab-12.68.0",
    "version": "2.0"
  },
  "bufferViews": [
    {
      "buffer": 0,
      "byteLength": 12348,
      "name": "floatBufferViews",
      "target": 34963
    },
    {
      "buffer": 0,
      "byteLength": 8904,
      "byteOffset": 12348,
      "byteStride": 8,
      "name": "floatBufferViews",
      "target": 34962
    },
    {
      "buffer": 0,
      "byteLength": 26712,
      "byteOffset": 21252,
      "byteStride": 12,
      "name": "floatBufferViews",
      "target": 34962
    },
    {
      "buffer": 0,
      "byteLength": 17808,
      "byteOffset": 47964,
      "byteStride": 16,
      "name": "floatBufferViews",
      "target": 34962
    }
  ],
  "buffers": [
    {
      "byteLength": 65772,
      "uri": "scene.bin"
    }
  ],
  "images": [
    {
      "uri": "textures/mt_Yoshi_baseColor.png"
    },
    {
      "uri": "textures/mt_Yoshi_S_baseColor.png"
    },
    {
      "uri": "textures/mt_Kart_Yoshi_Tire_S_baseColor.png"
    }
  ],
  "materials": [
    {
      "doubleSided": true,
      "name": "mt_Yoshi",
      "pbrMetallicRoughness": {
        "baseColorTexture": {
          "index": 0
        },
        "metallicFactor": 0.0,
        "roughnessFactor": 0.6
      }
    },
    {
      "doubleSided": true,
      "name": "mt_Yoshi_S",
      "pbrMetallicRoughness": {
        "baseColorTexture": {
          "index": 1
        },
        "metallicFactor": 0.0,
        "roughnessFactor": 0.6
      }
    },
    {
      "doubleSided": true,
      "name": "mt_Kart_Yoshi_Tire_S",
      "pbrMetallicRoughness": {
        "baseColorTexture": {
          "index": 2
        },
        "metallicFactor": 0.0,
        "roughnessFactor": 0.6
      }
    }
  ],
  "meshes": [
    {
      "name": "mt_Yoshi",
      "primitives": [
        {
          "attributes": {
            "COLOR_0": 2,
            "NORMAL": 1,
            "POSITION": 0,
            "TEXCOORD_0": 3
          },
          "indices": 4,
          "material": 0,
          "mode": 4
        }
      ]
    },
    {
      "name": "mt_Yoshi_S",
      "primitives": [
        {
          "attributes": {
            "COLOR_0": 7,
            "NORMAL": 6,
            "POSITION": 5,
            "TEXCOORD_0": 8
          },
          "indices": 9,
          "material": 1,
          "mode": 4
        }
      ]
    },
    {
      "name": "mt_Kart_Yoshi_Tire_S",
      "primitives": [
        {
          "attributes": {
            "COLOR_0": 12,
            "NORMAL": 11,
            "POSITION": 10,
            "TEXCOORD_0": 13
          },
          "indices": 14,
          "material": 2,
          "mode": 4
        }
      ]
    }
  ],
  "nodes": [
    {
      "children": [
        1
      ],
      "matrix": [
        1.0,
        0.0,
        0.0,
        0.0,
        0.0,
        2.220446049250313e-16,
        -1.0,
        0.0,
        0.0,
        1.0,
        2.220446049250313e-16,
        0.0,
        0.0,
        0.0,
        0.0,
        1.0
      ],
      "name": "Sketchfab_model"
    },
    {
      "children": [
        2
      ],
      "matrix": [
        1.0,
        0.0,
        0.0,
        0.0,
        0.0,
        -4.371139006309477e-08,
        0.999999999999999,
        0.0,
        0.0,
        -0.999999999999999,
        -4.371139006309477e-08,
        0.0,
        0.0,
        0.0,
        0.0,
        1.0
      ],
      "name": "Collada visual scene group"
    },
    {
      "children": [
        3,
        4,
        5
      ],
      "name": "F2_Item_Kart_Yoshi_S"
    },
    {
      "mesh": 0,
      "name": "mt_Yoshi"
    },
    {
      "mesh": 1,
      "name": "mt_Yoshi_S"
    },
    {
      "mesh": 2,
      "name": "mt_Kart_Yoshi_Tire_S"
    }
  ],
  "samplers": [
    {
      "magFilter": 9729,
      "minFilter": 9987,
      "wrapS": 10497,
      "wrapT": 10497
    }
  ],
  "scene": 0,
  "scenes": [
    {
      "name": "Sketchfab_Scene",
      "nodes": [
        0
      ]
    }
  ],
  "textures": [
    {
      "sampler": 0,
      "source": 0
    },
    {
      "sampler": 0,
      "source": 1
    },
    {
      "sampler": 0,
      "source": 2
    }
  ]
}
