{
  "accessors": [
    {
      "bufferView": 2,
      "componentType": 5126,
      "count": 307,
      "max": [
        0.27601999044418335,
        1.163949966430664,
        0.5807949900627136
      ],
      "min": [
        -0.27884501218795776,
        0.11132100224494934,
        -0.2867569923400879
      ],
      "type": "VEC3"
    },
    {
      "bufferView": 2,
      "byteOffset": 3684,
      "componentType": 5126,
      "count": 307,
      "max": [
        0.9995219707489014,
        0.9999961256980896,
        0.9999951124191284
      ],
      "min": [
        -0.9995219707489014,
        -0.9996218681335449,
        -0.9874197840690613
      ],
      "type": "VEC3"
    },
    {
      "bufferView": 3,
      "componentType": 5126,
      "count": 307,
      "max": [
        1.0,
        1.0,
        1.0,
        1.0
      ],
      "min": [
        1.0,
        1.0,
        1.0,
        1.0
      ],
      "type": "VEC4"
    },
    {
      "bufferView": 1,
      "componentType": 5126,
      "count": 307,
      "max": [
        0.9941409826278687,
        0.9960939884185791
      ],
      "min": [
        0.0019531298894435167,
        0.00390625
      ],
      "type": "VEC2"
    },
    {
      "bufferView": 0,
      "componentType": 5125,
      "count": 1137,
      "type": "SCALAR"
    },
    {
      "bufferView": 2,
      "byteOffset": 7368,
      "componentType": 5126,
      "count": 471,
      "max": [
        0.6250900030136108,
        0.6246309876441956,
        1.0730700492858887
      ],
      "min": [
        -0.6233540177345276,
        0.0468796007335186,
        -0.9783290028572083
      ],
      "type": "VEC3"
    },
    {
      "bufferView": 2,
      "byteOffset": 13020,
      "componentType": 5126,
      "count": 471,
      "max": [
        0.9986993670463562,
        0.9999948740005493,
        0.9996256232261658
      ],
      "min": [
        -0.9988386631011963,
        -0.9999750256538391,
        -1.0
      ],
      "type": "VEC3"
    },
    {
      "bufferView": 3,
      "byteOffset": 4912,
      "componentType": 5126,
      "count": 471,
      "max": [
        1.0,
        1.0,
        1.0,
        1.0
      ],
      "min": [
        0.0,
        0.0,
        0.0,
        1.0
      ],
      "type": "VEC4"
    },
    {
      "bufferView": 1,
      "byteOffset": 2456,
      "componentType": 5126,
      "count": 471,
      "max": [
        1.8808799982070923,
        1.1757400035858154
      ],
      "min": [
        -0.5628979802131653,
        -0.4360859990119934
      ],
      "type": "VEC2"
    },
    {
      "bufferView": 0,
      "byteOffset": 4548,
      "componentType": 5125,
      "count": 1083,
      "type": "SCALAR"
    },
    {
      "bufferView": 2,
      "byteOffset": 18672,
      "componentType": 5126,
      "count": 208,
      "max": [
        0.6179779767990112,
        0.43970099091529846,
        0.6250439882278442
      ],
      "min": [
        -0.6179779767990112,
        -0.0012316700303927064,
        -0.5712739825248718
      ],
      "type": "VEC3"
    },
    {
      "bufferView": 2,
      "byteOffset": 21168,
      "componentType": 5126,
      "count": 208,
      "max": [
        1.0,
        1.0,
        1.0
      ],
      "min": [
        -1.0,
        -1.0,
        -1.0
      ],
      "type": "VEC3"
    },
    {
      "bufferView": 3,
      "byteOffset": 12448,
      "componentType": 5126,
      "count": 208,
      "max": [
        0.7019608020782471,
        0.7019608020782471,
        0.7019608020782471,
        1.0
      ],
      "min": [
        0.49803921580314636,
        0.49803921580314636,
        0.49803921580314636,
        1.0
      ],
      "type": "VEC4"
    },
    {
      "bufferView": 1,
      "byteOffset": 6224,
      "componentType": 5126,
      "count": 208,
      "max": [
        5.312310218811035,
        1.0002700090408325
      ],
      "min": [
        -0.6908299922943115,
        -1.01187002658844
      ],
      "type": "VEC2"
    },
    {
      "bufferView": 0,
      "byteOffset": 8880,
      "componentType": 5125,
      "count": 576,
      "type": "SCALAR"
    }
  ],
  "asset": {
    "extras": {
      "author": "TheShibeLord (https://sketchfab.com/TheShibeLord)",
      "license": "CC-BY-4.0 (http://creativecommons.org/licenses/by/4.0/)",
      "source": "https://sketchfab.com/3d-models/mario-kart-66cc131575344ab69238ec5872f24927",
      "title": "Mario Kart"
    },
    "generator": "Sketchfab-12.68.0",
    "version": "2.0"
  },
  "bufferViews": [
    {
      "buffer": 0,
      "byteLength": 11184,
      "name": "floatBufferViews",
      "target": 34963
    },
    {
      "buffer": 0,
      "byteLength": 7888,
      "byteOffset": 11184,
      "byteStride": 8,
      "name": "floatBufferViews",
      "target": 34962
    },
    {
      "buffer": 0,
      "byteLength": 23664,
      "byteOffset": 19072,
      "byteStride": 12,
      "name": "floatBufferViews",
      "target": 34962
    },
    {
      "buffer": 0,
      "byteLength": 15776,
      "byteOffset": 42736,
      "byteStride": 16,
      "name": "floatBufferViews",
      "target": 34962
    }
  ],
  "buffers": [
    {
      "byteLength": 58512,
      "uri": "scene.bin"
    }
  ],
  "images": [
    {
      "uri": "textures/mt_mario_baseColor.png"
    },
    {
      "uri": "textures/mt_kart_Mario_S_baseColor.png"
    },
    {
      "uri": "textures/mt_Kart_Mario_Tire_S_baseColor.png"
    }
  ],
  "materials": [
    {
      "doubleSided": true,
      "name": "mt_mario",
      "pbrMetallicRoughness": {
        "baseColorTexture": {
          "index": 0
        },
        "metallicFactor": 0.0,
        "roughnessFactor": 0.6
      }
    },
    {
      "doubleSided": true,
      "name": "mt_kart_Mario_S",
      "pbrMetallicRoughness": {
        "baseColorTexture": {
          "index": 1
        },
        "metallicFactor": 0.0,
        "roughnessFactor": 0.6
      }
    },
    {
      "doubleSided": true,
      "name": "mt_Kart_Mario_Tire_S",
      "pbrMetallicRoughness": {
        "baseColorTexture": {
          "index": 2
        },
        "metallicFactor": 0.0,
        "roughnessFactor": 0.6
      }
    }
  ],
  "meshes": [
    {
      "name": "mt_mario",
      "primitives": [
        {
          "attributes": {
            "COLOR_0": 2,
            "NORMAL": 1,
            "POSITION": 0,
            "TEXCOORD_0": 3
          },
          "indices": 4,
          "material": 0,
          "mode": 4
        }
      ]
    },
    {
      "name": "mt_kart_Mario_S",
      "primitives": [
        {
          "attributes": {
            "COLOR_0": 7,
            "NORMAL": 6,
            "POSITION": 5,
            "TEXCOORD_0": 8
          },
          "indices": 9,
          "material": 1,
          "mode": 4
        }
      ]
    },
    {
      "name": "mt_Kart_Mario_Tire_S",
      "primitives": [
        {
          "attributes": {
            "COLOR_0": 12,
            "NORMAL": 11,
            "POSITION": 10,
            "TEXCOORD_0": 13
          },
          "indices": 14,
          "material": 2,
          "mode": 4
        }
      ]
    }
  ],
  "nodes": [
    {
      "children": [
        1
      ],
      "matrix": [
        1.0,
        0.0,
        0.0,
        0.0,
        0.0,
        2.220446049250313e-16,
        -1.0,
        0.0,
        0.0,
        1.0,
        2.220446049250313e-16,
        0.0,
        0.0,
        0.0,
        0.0,
        1.0
      ],
      "name": "Sketchfab_model"
    },
    {
      "children": [
        2
      ],
      "matrix": [
        1.0,
        0.0,
        0.0,
        0.0,
        0.0,
        -4.371139006309477e-08,
        0.999999999999999,
        0.0,
        0.0,
        -0.999999999999999,
        -4.371139006309477e-08,
        0.0,
        0.0,
        0.0,
        0.0,
        1.0
      ],
      "name": "Collada visual scene group"
    },
    {
      "children": [
        3,
        4,
        5
      ],
      "name": "F2_Item_Kart_Mario_S"
    },
    {
      "mesh": 0,
      "name": "mt_mario"
    },
    {
      "mesh": 1,
      "name": "mt_kart_Mario_S"
    },
    {
      "mesh": 2,
      "name": "mt_Kart_Mario_Tire_S"
    }
  ],
  "samplers": [
    {
      "magFilter": 9729,
      "minFilter": 9987,
      "wrapS": 10497,
      "wrapT": 10497
    }
  ],
  "scene": 0,
  "scenes": [
    {
      "name": "Sketchfab_Scene",
      "nodes": [
        0
      ]
    }
  ],
  "textures": [
    {
      "sampler": 0,
      "source": 0
    },
    {
      "sampler": 0,
      "source": 1
    },
    {
      "sampler": 0,
      "source": 2
    }
  ]
}
